<svg xmlns="http://www.w3.org/2000/svg" viewBox="160 730 110 340" width="110" height="340">
  <g fill="#c9bf93">
				<path d="m208.62 755.53c0.09 4.01-0.89 7.87-1.38 11.82q0.52-1.23 1.05-2.47 0.11 0.05 0.23 0.09-1.02 2.84-2.04 5.68-0.31-0.08-0.61-0.17 0.89-4.89 1.78-9.79-0.12-0.03-0.24-0.06-1.72 5.42-3.44 10.84-0.25-0.09-0.51-0.18c1.11-5.43 3.2-10.56 5.16-15.76z"/>
				<path d="m197.36 753.16c1.21 5.58 3.45 11.04 1.89 16.93 0.23-5.74-1.13-11.3-1.89-16.93z"/>
				<path d="m214.53 766.18c-1.38 2.82-2.63 5.36-3.88 7.9q-0.26-0.09-0.53-0.18 0.41-1.34 0.82-2.7-0.41 0.07-0.91 0.16c-0.03-0.96 3.07-4.76 4.5-5.18z"/>
				<path d="m200.84 755.99c1.4 2.76 1.34 5.73 1.23 8.71q-0.38-3.54-0.75-7.08-0.21 0.02-0.41 0.05 0.52 5.75 1.05 11.5c-1.5-4.31-1.07-8.76-1.12-13.18z"/>
				<path d="m211.96 755.81c0.58 2.57-0.39 4.8-1.38 7.03q0.69-3.52 1.38-7.03z"/>
				<path d="m226.4 766.45q-1.14 1.37-2.27 2.73-0.19-0.16-0.39-0.32 1.13-1.37 2.25-2.74 0.21 0.17 0.41 0.33z"/>
				<path d="m223.13 772.33l1.86-2.31q0.22 0.19 0.44 0.37-0.98 1.11-1.96 2.23-0.17-0.15-0.34-0.29z"/>
				<path d="m184.42 771.81c1.37-3.02 2.78-6.03 4.89-8.67-1.33 3.05-2.64 6.11-4.33 8.97q-0.28-0.15-0.56-0.3z"/>
				<path d="m188.97 767.7c-0.95 1.53-1.91 3.06-2.97 4.77-0.06-1.36 1.25-3.55 2.97-4.77z"/>
					<path fill-rule="evenodd" d="m198.33 952.41c0.71-2.83 1.58-5.62 2.08-8.48 0.98-5.57 2.81-10.66 7.25-14.44 0.96-0.81 2.08-1.55 3.25-1.99 2.38-0.9 3.92 0.46 3.47 2.95-0.19 1.06-0.38 2.17-0.85 3.12-1.7 3.48-1.52 7.08-0.83 10.72 0.24 1.25 0.59 2.49 0.97 3.72 0.37 1.19 1.27 1.66 2.74 1.61-0.37-1.22-0.71-2.34-1.06-3.46-0.21-0.68-0.42-1.28 0.75-1.13 0.25 0.03 0.92-0.85 0.83-1.03-0.75-1.47 0.05-2.89 0.06-4.31 0.01-1.35 0.25-2.7 0.38-4.05q-0.16-0.07-0.32-0.14c-0.19 0.34-0.45 0.66-0.56 1.02q-0.77 2.47-1.5 4.95c-0.09 0.31-0.1 0.66-0.25 0.93-0.13 0.25-0.4 0.43-0.61 0.64-0.18-0.28-0.53-0.56-0.51-0.83q0.08-1.19 0.37-2.36c0.4-1.67 0.95-3.32 1.24-5.01 0.18-1.07-0.03-2.21-0.01-3.31 0.02-0.8 0.05-1.61 0.25-2.37 0.08-0.31 0.64-0.49 0.9-0.68-0.16 1.07-0.4 1.93-0.4 2.8 0 1.38 0.16 2.76 0.24 3.99 0.3-0.12 0.79-0.32 1.29-0.53 0.28 0.88 0.56 1.76 0.87 2.7 0.92-0.44 1.94-0.98 2.17-2.41 0.13-0.79 0.4-1.56 0.72-2.29 0.39-0.88 1.04-0.91 1.48-0.05 0.4 0.77 0.62 1.64 0.92 2.47 1.11 3.06 2.17 6.13 3.34 9.16 0.34 0.87 0.96 1.68 1.58 2.4 0.38 0.43 1.02 0.64 1.71 1.05 0.05-0.45 0.05-0.63 0.09-0.8q0.1-0.37 0.21-0.74c0.26 0.13 0.59 0.21 0.78 0.41 1.23 1.29 2.49 2.02 4.37 2.34-0.19-0.64-0.4-1.17-0.5-1.71-0.08-0.48-0.05-0.97-0.07-1.46 0.49 0.06 1.04-0.01 1.45 0.2 2.52 1.29 5.23 1.79 8 2.07 0.23 0.03 0.46 0.01 0.84 0.01-0.16-0.24-0.21-0.4-0.33-0.47q-4.26-2.71-8.53-5.39c-0.88-0.56-1.81-1.04-2.65-1.65-0.3-0.22-0.39-0.71-0.58-1.08 0.42-0.18 0.84-0.52 1.25-0.5 2.17 0.1 4.14 0.83 6.04 1.88 1.18 0.64 2.49 1.39 3.77 1.45 2.56 0.12 5.14-0.21 7.72-0.35q0.08-0.22 0.16-0.44c-0.42-0.54-0.74-1.26-1.28-1.61-1.99-1.26-4.03-2.43-6.09-3.57-0.88-0.49-1.84-0.81-2.75-1.22-0.88-0.4-1.33-0.96-0.76-2.13-0.83 0.27-1.74 0.42-2.49 0.85-1.67 0.95-3.25 2.06-4.88 3.09-0.72 0.45-1.43 0.81-2.34 0.27-1.74-1.02-2.05-1.81-1.1-3.63 0.61-1.17 1.33-2.28 1.89-3.66-0.75 0.3-1.48 0.63-2.24 0.89q-1.81 0.65-3.65 1.22c-0.33 0.1-0.72 0.11-1.07 0.06-1.55-0.23-3.03-0.86-3.47-2.41-0.41-1.45 0.46-2.84 1.62-3.63 2.04-1.41 4.27-2.55 6.41-3.8 0.73-0.42 1.99-0.67 1.36-1.82-0.6-1.08-1.52-0.16-2.18 0.2-1.17 0.61-2.18 1.49-3.68 0.75-0.3-0.14-1.03 0.34-1.43 0.69-1.28 1.1-2.49 2.28-3.74 3.41-0.37 0.33-0.79 0.61-1.19 0.91q-0.12-0.11-0.25-0.21c0.24-0.42 0.4-0.93 0.74-1.26q2.07-2.01 4.25-3.91c0.7-0.6 1.51-0.83 2.47-0.44 0.36 0.15 0.92 0 1.32-0.17 0.67-0.28 1.26-0.72 1.92-1.02 1.21-0.54 2.16-0.31 2.63 0.58 0.54 1.01 0.18 2.08-0.98 2.73-1.89 1.07-3.81 2.08-5.7 3.14-1.11 0.62-2.12 1.39-2.42 2.7-0.11 0.45-0.03 1.13 0.26 1.45 0.78 0.88 1.83 1.39 3.03 1.05 1.46-0.42 2.88-0.98 4.31-1.48 0.34-0.12 0.67-0.33 1.01-0.37 0.6-0.08 1.21-0.06 1.82-0.08-0.12 0.6-0.11 1.25-0.37 1.77-0.56 1.15-1.27 2.22-1.91 3.34-0.55 0.98-0.28 1.74 0.77 2.09 0.38 0.13 0.95 0.08 1.3-0.12 1-0.59 1.87-1.42 2.91-1.93q2.41-1.19 4.96-2.04c0.5-0.17 1.18 0.19 1.78 0.31-0.24 0.48-0.48 0.95-0.79 1.57 0.97 0.43 2.05 0.82 3.04 1.36 2.14 1.17 4.26 2.37 6.31 3.69 0.63 0.4 1.06 1.19 1.45 1.87 0.45 0.78 0.14 1.39-0.71 1.71q-0.11 0.05-0.22 0.07c-4.16 0.39-8.36 1.46-12.23-1.24-1.47-1.02-3.17-1.52-4.95-1.65q-0.08 0.14-0.16 0.29c0.62 0.36 1.26 0.7 1.86 1.08 3.08 1.96 6.16 3.91 9.21 5.92 0.32 0.21 0.43 0.76 0.64 1.16-0.41 0.17-0.83 0.5-1.24 0.49-2.7-0.07-5.36-0.43-7.87-1.53-0.39-0.17-0.78-0.31-1.39-0.54 0.22 0.66 0.39 1.1 0.51 1.55 0.26 1.06-0.26 1.77-1.32 1.5-1.11-0.28-2.13-0.88-3.2-1.33-0.34-0.14-0.77-0.4-1.06-0.3-1.33 0.44-2.39-0.08-3.07-1.06-0.94-1.34-1.8-2.78-2.39-4.29-1.07-2.73-1.91-5.54-2.85-8.32-0.15-0.44-0.31-0.89-0.73-1.34-0.14 0.43-0.32 0.85-0.4 1.29-0.26 1.43-0.69 2.7-2.15 3.41-0.31 0.16-0.47 0.79-0.56 1.23-0.34 1.65-0.53 3.33-0.96 4.95-0.21 0.8-0.83 1.48-1.44 2.51 0.17 0.54 0.5 1.48 0.74 2.45 0.28 1.17-0.08 1.57-1.27 1.52-1.36-0.05-2.5-0.58-2.92-1.92-1.49-4.76-2.67-9.52-0.57-14.45 0.58-1.35 0.97-2.81 1.24-4.26 0.28-1.46-0.62-2.28-2.05-1.81-1.11 0.37-2.21 1-3.1 1.76-3.96 3.4-6.08 7.88-6.74 12.97-0.73 5.63-2.49 10.94-4.44 16.22-0.22 0.59-0.3 1.23-0.5 1.83-0.16 0.44-0.31 1-0.65 1.23-0.57 0.39-1.32 0.81-1.92 0.72-0.34-0.05-0.72-1.08-0.77-1.69q-0.78-9.54-1.47-19.08c-0.25-3.37-0.71-6.74-0.62-10.1 0.13-5.37 0.82-10.73 0.96-16.1 0.19-7.5 0.1-15.02 0.09-22.53 0-0.92-0.36-1.71-1.02-2.54-1.17-1.49-2.12-3.23-2.84-4.99-0.87-2.11-1.91-4.04-3.39-5.78-1.29-1.53-2.48-3.15-3.65-4.78-0.94-1.31-0.69-1.67 0.34-2.84 0.58-0.67 0.84-1.79 0.86-2.71 0.02-0.78-0.38-1.67-0.85-2.33-0.83-1.2-1.18-2.45-0.99-3.87 0.23-1.76-0.55-2.97-1.95-3.97-0.94-0.67-1.81-1.46-2.61-2.3-0.65-0.68-0.44-1.21 0.47-1.5 2.6-0.81 2.52-0.77 1.22-3.24-1.92-3.67-4.61-6.53-8.19-8.62-0.58-0.34-0.92-1.08-1.37-1.63 0.72-0.24 1.45-0.71 2.15-0.67 2.74 0.12 5.24 1.12 7.62 2.44 0.21 0.12 0.42 0.22 0.73 0.38 0.25-0.86 0.46-1.67 0.72-2.46 0.52-1.54 1.51-1.83 2.7-0.72 1.55 1.44 2.31 3.32 2.42 5.37 0.17 3.05 0.15 6.1 0.21 9.16q0 0.68 0 1.42c2.16-0.46 2.16-0.46 2.64 2.54 0.38-0.55 0.62-0.97 0.94-1.34 0.29-0.33 0.66-0.59 0.99-0.87 0.16 0.41 0.49 0.85 0.45 1.25q-0.32 3.05-0.82 6.08c-0.29 1.73-0.7 3.44-1.13 5.48 0.5-0.31 0.68-0.43 0.86-0.54q1.31-0.82 1.62 0.73c0.14 0.67 0.17 1.35 0.29 2.03 0.24 1.33 0.6 2.66 0.74 4.01 0.13 1.3 0.2 2.64 0.04 3.93-0.33 2.84-0.08 5.16 1.1 7.2 0.12-3.31 0.37-6.42 0.31-9.52-0.23-14.25-0.49-28.51-0.87-42.76-0.16-5.95-0.36-11.89 0.52-17.8 0.81-5.54 1.9-11 4.34-16.19-1.08-0.74-1.72-1.62-0.91-2.74-1.14-0.5-2.52-0.75-3.36-1.56-0.84-0.8-1.16-2.16-1.75-3.35-4.19 0.41-7.94-0.99-10.82-4.56-2.46-3.05-5.16-5.84-8.52-7.93-0.73-0.45-1.34-1.15-1.91-1.81-0.49-0.58-0.41-1.19 0.27-1.64 2.62-1.73 5.27-3.37 8.31-4.29 1.35-0.41 2.62-1.08 3.91-1.62 0.19-0.82 0.58-1.72 0.57-2.6-0.03-1.47-0.25-2.94-0.5-4.4-0.5-2.84-0.34-5.61 0.97-8.22 0.39-0.78 0.31-1.26-0.37-1.84-1.5-1.29-1.32-2.1 0.33-3.11 1.63-0.99 3.2-2.1 4.71-3.26 1.28-0.98 3.53-1.18 4.55-0.12 1.13 1.17 2.47 1.23 3.89 1.04 0.79-0.11 1.56-0.4 2.34-0.58 1.48-0.33 2.39-0.06 2.96 1.35 0.54 1.34 0.71 2.84 0.99 4.27 0.14 0.72 0.16 1.46 0.24 2.18q0.23 0.03 0.46 0.05 0.45-1.37 0.87-2.75c0.42-1.39 0.47-1.39 1.49-0.48 0.65 0.59 1.3 0.34 1.79-0.23 0.53-0.6 0.94-1.3 1.44-1.93 1-1.24 2.01-1.4 3.39-0.62 1.04 0.58 2.14 1.08 3.14 1.73 0.52 0.34 1.02 0.84 1.3 1.39 0.58 1.11 1.41 1.81 2.67 2.18-0.17-1.49-0.7-2.61-2.07-3.42-1.51-0.88-2.94-1.95-4.24-3.11-1.98-1.78-4.51-1.77-6.26 0.2-1.12 1.27-1.71 1.35-3.05 0.36-0.83-0.62-2.06-0.75-2.41-1.99-0.04-0.16-0.64-0.24-0.97-0.22-2.05 0.15-4.1 0.34-6.42 0.53 0.67-0.38 1.2-0.9 1.79-0.99 1.7-0.28 3.43-0.42 5.15-0.52 0.42-0.03 0.92 0.24 1.29 0.51 0.8 0.6 1.54 1.28 2.3 1.93 0.57 0.48 1.02 0.38 1.57-0.13 2.8-2.6 5.14-2.47 7.94 0.19 1 0.96 2.22 1.73 3.45 2.39 1.42 0.75 2.39 1.75 2.62 3.36 0.18 1.32 1.01 1.96 2.09 2.67 2.07 1.36 4.25 1.78 6.63 1.64 1.54-0.08 2.54 0.75 3.31 2.02 0.41 0.66 0.93 1.28 1.53 1.78 0.92 0.78 1.23 1.58 0.98 2.84-0.45 2.16-1.18 3.99-3.04 5.39-1.37 1.03-1.71 3.41 0.25 4.46 0.88 0.48 1.11 1.26 0.76 2.16-0.41 1.05 0.03 1.75 0.78 2.43 0.59 0.53 1.18 1.09 1.63 1.74 0.47 0.68 0.41 1.47-0.38 1.87-1.72 0.86-3.49 1.62-5.25 2.41-0.1 0.05-0.28-0.06-0.62-0.15 1.5-1.77 3.84-1.82 5.52-3.35-0.49-0.53-0.93-1.08-1.46-1.52-1.21-1.01-1.96-2.1-1.18-3.76 0.12-0.27-0.09-0.86-0.34-1.1-1.87-1.8-1.99-4.24 0.06-5.8 1.75-1.34 2.38-2.97 2.25-5-0.03-0.49-0.44-1.01-0.79-1.42-0.6-0.71-1.41-1.27-1.9-2.04-0.62-0.98-1.29-1.55-2.5-1.52-2.22 0.05-4.3-0.32-6.06-1.88-0.56-0.49-1.35-0.73-2.19-0.86 0.12 0.16 0.21 0.38 0.37 0.49 1.14 0.72 2.3 1.4 3.43 2.14 0.88 0.58 1.75 0.83 2.84 0.72 0.64-0.06 1.48 0.29 1.97 0.74 0.66 0.61 1.18 1.45 1.53 2.29 0.21 0.51 0.11 1.24-0.08 1.79-0.16 0.45-0.61 0.88-1.04 1.14-1.61 0.96-2.03 2.2-1.33 3.97 0.46 1.17 0.05 1.78-1.13 2.24q-0.28 0.1-0.56 0.2c-2.61 0.97-2.92 1.54-2.33 4.22 0.59 2.71 0.41 3.63-1.41 6.94 0.89-0.56 1.57-1 2.28-1.42 0.81-0.49 1.53-0.38 2.09 0.43 0.59 0.85 1.25 1.68 1.72 2.6 0.43 0.85 0.33 1.4-0.23 1.62 0-0.53 0.12-0.92-0.03-1.14q-1.02-1.55-2.21-2.97c-0.14-0.16-0.77-0.04-1.07 0.13-0.47 0.27-0.82 0.79-1.31 1.04-0.79 0.42-1.65 0.97-2.49 0.96-0.88 0-1.53 0.16-2.18 0.7-0.44 0.34-0.92 0.69-1.44 0.86-1.56 0.5-2.22 1.7-2.76 3.1-0.59 1.53-1.29 3.02-1.99 4.5-0.29 0.63-0.71 1.19-1.22 2.02 0.63-0.1 1.02-0.05 1.3-0.21 1.7-0.94 3.11-2.2 2.64-4.47-0.45-2.15 1.1-4.14 3.06-3.92 1.25 0.14 1.9-0.3 2.6-1.21 1.36-1.78 3.35-1.97 5.17-0.63 0.51 0.38 1.06 0.71 1.88 1.26q-0.35 0.12-0.93 0.07c-1.36-0.11-3.77 1.42-4.33 2.76 0.67 0.42 1.33 0.86 2.02 1.22 0.23 0.12 0.62 0.12 0.85 0 1.1-0.57 2.16-1.2 3.57-1.98-1.57-0.15-2.85-0.27-4.13-0.39q0.02-0.17 0.03-0.36c1.5-0.16 3.01-0.31 4.47 0.28 0.72 0.29 0.64 0.91-0.13 1.32-1.03 0.55-2.09 1.03-3.11 1.58-0.25 0.14-0.48 0.41-0.61 0.67-0.74 1.56-1.37 3.19-2.21 4.71-0.56 0.99-1.56 1.3-2.73 0.98-0.28-0.08-0.67 0.16-0.99 0.29-0.92 0.4-1.81 0.98-2.77 1.2-1.44 0.33-2.93 0.55-4.4 0.58-1.72 0.05-3.48 0.05-5.13-0.31-2.02-0.44-3.88-0.2-5.8 0.37-1.35 0.41-2.77 0.56-4.68 0.92-0.94 3.17-2.02 6.83-3.1 10.48q0.23 0.07 0.47 0.14 1.46-5.02 2.93-10.04 0.17 0.03 0.34 0.07c0.01 0.16 0.06 0.33 0.02 0.47-0.81 2.82-1.58 5.65-2.48 8.43-0.92 2.84-1.13 5.72-1.07 8.68 0.07 3.81-0.14 7.63-0.08 11.44 0.09 5.66 0.36 11.32 0.44 16.97 0.08 5.1 0 10.2-0.01 15.29-0.01 3.42-0.12 6.83-0.02 10.24 0.19 7.16 0.1 14.27-0.66 21.41-0.59 5.5-0.55 11.08-0.51 16.62q0.12 12.05 0.67 24.08c0.23 5.13 0.82 10.24 1.42 15.4 0.45-1.97 0.95-3.94 1.35-5.92 0.78-3.82 1.48-7.65 2.25-11.46 0.65-3.22 2.17-5.82 5.22-7.41 0.61-0.32 1.27-1.31 1.25-1.96-0.11-2.19-0.5-4.36-0.79-6.55-0.05-0.31-0.13-0.63-0.15-0.94-0.08-1.29 0.36-1.81 1.66-1.77 1.67 0.04 3.29-0.02 4.78-0.91 0.97-0.57 1.76-1.22 2.06-2.38 0.14-0.52 0.43-1.07 0.81-1.45 3.3-3.22 4.92-7.26 5.9-11.65 0.28-1.29 0.7-2.56 1.21-3.77 0.22-0.52 0.82-0.88 1.25-1.31 0.23 0.52 0.58 1.02 0.66 1.56 0.64 4.56-0.2 8.96-1.51 13.3q-0.19 0.6-0.39 1.2 0.14 0.09 0.27 0.17c2-2.39 4.09-4.71 5.98-7.19 1.89-2.48 4.42-4.17 6.84-6.02 0.21-0.16 0.77-0.25 0.84-0.15 0.17 0.26 0.27 0.66 0.21 0.97q-0.76 3.59-1.55 7.16c-0.04 0.15-0.04 0.31-0.07 0.54 0.72-0.33 1.33-0.77 2-0.89 0.55-0.1 1.16 0.17 1.75 0.28-0.1 0.55-0.18 1.11-0.33 1.65-0.07 0.25-0.29 0.46-0.44 0.7q-1.3 0.84-2.6 1.68c-1.84 0.81-3.7 1.56-5.5 2.44-0.66 0.32-1.22 0.89-1.76 1.42q-2.46 2.38-4.85 4.82c-0.25 0.26-0.42 0.69-0.47 1.05-0.21 1.76-1.11 3.13-2.25 4.43-0.68 0.76-1.12 1.71-1.68 2.57q-0.28 0.44-0.8 0.73c-0.34-1.37 0.16-2.42 1.02-3.37 0.69-0.77 1.45-1.52 2.01-2.38 0.76-1.18 1.25-2.47 0.1-4-0.63 0.81-1.38 1.51-1.8 2.37-1.1 2.28-2.88 3.54-5.19 4.52-3.11 1.31-6.09 2.99-9.02 4.69-2.54 1.48-3.28 4.11-3.85 6.8-1.41 6.67-2.87 13.33-4.3 19.99-0.25 1.17-0.43 2.35-0.67 3.52-0.08 0.37-0.23 0.72-0.35 1.08q-0.17-0.01-0.34-0.02c-0.05-0.35-0.18-0.7-0.14-1.04 0.68-5.58 0.01-11.12-0.37-16.68-0.39-5.8-0.51-11.62-0.75-17.44q-0.03-1.07-0.22-2.14c-0.69 4.62-0.81 9.25-0.57 13.9 0.37 6.93 0.71 13.87 1.13 20.8 0.09 1.46 0.45 2.91 0.72 4.35 0.04 0.18 0.37 0.48 0.42 0.45 0.25-0.14 0.61-0.33 0.66-0.56 0.22-0.96 0.34-1.94 0.51-2.97 0.67-0.15 1.99-3.21 2.54-6.2zm-9.42-203.49q-0.02 0-0.04 0-0.01 0.02-0.02 0.04 0.02-0.01 0.04-0.02 0.01-0.01 0.02-0.02zm-0.44 0.2c-1.1 1.73-2.95 2.4-4.65 3.3-1.29 0.68-1.38 0.95-0.21 1.91 0.88 0.72 0.98 1.4 0.43 2.38-1.59 2.86-1.78 5.87-0.77 8.97 0.84 2.55 0.78 5.15 0.34 7.74-0.07 0.4-0.57 0.71-0.83 1.09-0.33 0.47-0.62 0.96-1.05 1.63-0.59-0.25-0.55-0.78-0.08-1.44 0.37-0.52 0.74-1.05 1.21-1.7-2.22 0-2.4 0.13-2.33 1.92 0.05 1.32 0.32 2.63 0.36 3.95 0.06 1.84 0.94 3.11 2.47 3.99q1.51 0.89 3.05 1.71c1.57 0.82 2.5 2.07 2.79 3.83 0.12 0.71 0.41 1.38 0.71 2.39 1-3.27-0.14-5.93-0.85-8.62-0.1-0.41-0.56-0.8-0.95-1.04-1.62-0.99-1.63-0.97-1.1-2.79q0.14-0.46 0.28-0.92c0.45-1.64 0-2.25-1.68-2.33-0.65-0.02-1.29-0.11-1.93-0.17q0.01-0.27 0.02-0.54c0.95 0 1.92-0.1 2.85 0.02 1.37 0.18 2.02 1.13 1.82 2.49q-0.13 0.96-0.46 1.86c-0.28 0.76-0.13 1.18 0.57 1.68 0.64 0.46 1.32 1.23 1.45 1.95 0.44 2.31 0.65 4.67 0.91 7.01 0.06 0.59-0.12 1.22 0.01 1.79 0.09 0.45 0.48 0.83 0.76 1.28 0.81-1.62 1.49-2.99 2.16-4.36q0.61-1.23 1.2-2.46 0.23 0.1 0.46 0.2-0.65 1.55-1.27 3.12c-0.39 0.99-1.42 1.78-1.05 3.21 0.42-0.7 0.73-1.26 1.09-1.79 0.36-0.53 0.77-1.03 1.36-1.8-0.07 1.97-2.26 5.44-3.13 5.35 0.01 2.4 1.31 3.44 4.49 3.6 1.05-1.95 0.88-3.53-0.59-5.12q-1.04 1.64-2.08 3.26-0.25-0.14-0.5-0.29 0.92-1.62 1.81-3.26c0.2-0.37 0.49-0.82 0.42-1.17-0.62-3.01 0.59-5.41 2.4-7.64 1.41-1.74 1.5-3.07 0.36-5.04-1.98 1.03-3.28 2.6-2.01 4.94 0.56 1.02-0.14 1.88-1.35 1.95-0.35 0.02-0.71 0-1.03 0-0.67 1.3-1.32 2.53-1.97 3.77l-0.51-0.24c0.52-1.25 1.03-2.5 1.52-3.67q-1.27-0.77-2.47-1.49 0.11-0.21 0.21-0.42 0.6 0.17 1.2 0.34c0.84 0.24 1.68 0.53 2.54 0.69 0.66 0.12 1.08-0.06 0.81-0.94-0.65-2.12-0.24-3.23 1.52-4.61 0.5-0.4 1.04-0.78 1.45-1.27 0.66-0.79 0.43-1.5-0.57-1.82-0.5-0.16-1.02-0.23-1.53-0.34-2.11-0.44-2.98-1.74-2.5-3.86 0.13-0.61 0.44-1.21 0.77-1.75 0.57-0.92 0.94-1.82 0.63-2.95-0.28-1.02-0.04-1.99 0.68-2.81 0.9-1.01 1.28-2.1 0.62-3.41-0.69-1.37-1.76-2.03-3.29-1.98-1.21 0.03-2.18-0.57-2.62-1.62-0.52-1.21-1.27-1.61-2.56-1.66-1.86-0.07-2.4-1.48-1.35-3.06 0.68-1.01 1.28-2.07 1.92-3.1-0.14 0.04-0.32 0.06-0.38 0.16zm3.97 0.34c-0.71-1.41-2.09-1.65-3.53-0.54q1.8 0.28 3.53 0.54zm13.57 31.3l-0.54-1.03q-0.15-0.01-0.31-0.01-0.23 1.47-0.46 2.95 0.16 0.07 0.32 0.14 0.22-0.44 0.44-0.89 0.28-0.58 0.56-1.15 0-0.01-0.01-0.01zm0.01 0.01q0.01 0 0.02 0 0-0.02 0-0.04-0.01 0.02-0.02 0.04zm0.12 1.57c1.79-0.05 3.32-0.45 4.6-1.68 1.11-1.06 2.45-0.91 3.72-0.34 0.85 0.38 1.62 0.95 2.43 1.43-0.63-0.07-1.12-0.39-1.62-0.68-1.36-0.77-3.06-0.89-3.83 0.01-1.33 1.57-3.01 2.18-4.96 2.34-1 0.09-1.63 0.68-1.85 1.63-0.22 0.94-0.27 1.91-0.53 2.83q-0.87 3.06-1.89 6.06c-0.08 0.24-0.55 0.35-0.83 0.51-0.04-0.28-0.15-0.58-0.09-0.83 0.99-4.06 2.01-8.12 3.04-12.27-0.81 0.05-1.3 0.09-1.88 0.13q-0.18 0.64-0.39 1.33l0.03-0.03c-0.45 0.92-1.27 1.84-1.28 2.76-0.02 1.54-0.46 2.79-1.2 4.07-0.86 1.52-1.18 3.19-1.08 4.59 1.12 0.39 1.98 0.62 2.77 0.98 0.83 0.38 1.47 0.44 2.15-0.31 0.43-0.49 1.07-0.79 1.52-1.1q0.56-3.57 1.12-7.08 0.16 0 0.32 0c0.9 2.2-0.75 4.39-0.38 6.58q0.22 0.05 0.43 0.1 0.95-3.89 1.9-7.78 0.28 0.03 0.56 0.06c0.62 2.39 0.14 4.88 0.32 7.31q0.18 0.02 0.36 0.04 1.01-4.11 2.02-8.21 0.17 0 0.35 0.01v7.44q0.17 0.01 0.35 0.02c0.19-0.3 0.37-0.59 0.71-1.13-0.06 0.73-0.09 1.17-0.13 1.71 1.42-1.55 0.22-3.35 0.73-5.21 0.27 0.66 0.42 1.05 0.59 1.45 0.49-0.51 0.86-1.14 1.41-1.45 1.66-0.91 3.39-1.69 5.08-2.55 0.15-0.07 0.25-0.27 0.37-0.41 1.77-2.05 2.2-4.35 1.53-6.97-0.63-2.43-0.2-3.15 2.05-4.14q0.55-0.24 1.12-0.44c1.71-0.56 1.71-0.56 1.36-2.32-0.36-1.81-0.01-2.56 1.51-3.5 0.88-0.55 1.69-1.26 1.39-2.42-0.41-1.55-1.97-2.53-3.29-2.43-0.84 0.06-1.82 0.03-2.53-0.34-1.55-0.82-2.96-1.89-4.43-2.86-0.13-0.08-0.3-0.23-0.31-0.35-0.09-1.66-1.18-2.52-2.51-3.2-0.1-0.05-0.19-0.16-0.23-0.27-0.97-2.29-3.1-3.15-5.14-4.05-0.42-0.19-1.13 0.04-1.58 0.29-0.38 0.22-0.59 0.75-0.85 1.15-1.34 2.01-1.76 2.2-4.11 1.74-0.16 0.48-0.27 0.98-0.48 1.45-0.31 0.69-0.37 1.79-1.45 1.61-1.08-0.17-1.17-1.18-1.23-2.09-0.03-0.56 0.05-1.13-0.02-1.68-0.1-0.83-0.2-1.69-0.47-2.47-0.66-1.84-1.25-2.04-3.12-1.46-1.06 0.33-2.21 0.8-3.25 0.67-1.64-0.21-2.72 0.38-3.63 1.56-0.55 0.72-1.04 1.49-1.44 2.07 0.45 0.67 0.85 1.15 1.14 1.7 0.59 1.12 1.42 1.82 2.75 1.8 1.85-0.02 3.08 0.91 3.94 2.49 0.86 1.57 0.39 2.88-0.52 4.25-0.37 0.56-0.5 1.41-0.44 2.1 0.11 1.27-0.05 2.37-0.85 3.4-1.96 2.5-1.49 3.89 1.58 4.68 1.11 0.29 2.12 0.63 2.12 2.09 0.45-0.05 0.82-0.1 0.92-0.12q-0.46-1.44-0.91-2.83c0.77-0.2 1.54-0.39 2.22-0.55 0.12-0.39 0.28-0.88 0.43-1.37 0.67 0.46 1.34 0.92 2.17 1.49 0.43-0.47 1.04-1.21 1.75-1.83 0.31-0.28 0.83-0.32 1.25-0.47 0.11 0.46 0.4 0.97 0.3 1.38-0.18 0.76-0.59 1.45-0.95 2.27 1.06-0.17 2.25-0.75 2.75 0.43 0.21 0.49-0.46 1.36-0.79 2.19 0.98 1.18 0.95 1.26-0.64 2.02-0.22 0.11-0.45 0.35-0.54 0.57-0.3 0.78-0.86 0.98-1.61 0.86q0.05 0.79 0.1 1.57zm-35.88 60.31q-0.08 0.14-0.15 0.28c0.51 0.35 1.02 0.72 1.54 1.05 3.8 2.38 6.17 5.92 8.06 9.84 0.6 1.27 0.27 1.92-1.09 2.38-0.48 0.16-0.98 0.27-1.76 0.48 0.93 0.78 1.62 1.51 2.45 2.01 2.09 1.24 3.06 2.93 2.83 5.4-0.07 0.72 0.36 1.51 0.64 2.24 0.05 0.12 0.47 0.11 0.95 0.21 0.08 7.17 3.13 13.4 7.03 19.04 0-1.47-0.01-3.14 0-4.81 0.01-1.19 0.19-2.4 0.05-3.58-0.19-1.62-0.6-3.22-0.91-4.83-0.1-0.57-0.16-1.15-0.25-1.8-0.77 0.57-1.42 1.04-2.09 1.53 0.46 1.85 0.96 3.79 1.44 5.73 0.13 0.51 0.3 1.02 0.31 1.53 0.01 0.48-0.16 0.96-0.25 1.44-0.35-0.32-0.76-0.59-1.04-0.97-0.25-0.34-0.41-0.79-0.5-1.21-0.46-2.08-0.93-4.15-1.3-6.24-0.75-4.3-1.05-8.73-2.26-12.9-1.36-4.67-3.51-9.12-5.34-13.66-0.06-0.17-0.23-0.33-0.39-0.43-2.45-1.54-5.07-2.57-7.97-2.73zm39.19 81.41q0.07 0.09 0.14 0.18c1.17-0.48 2.32-1.03 3.52-1.42 1.73-0.55 3.04-1.55 3.93-3.15 0.79-1.42 1.86-2.57 3.37-3.33 0.72-0.36 1.33-1.02 1.91-1.62 1.72-1.81 3.41-3.66 5.11-5.49q0.11 0.1 0.22 0.2c-1.66 1.88-3.35 3.74-4.97 5.67-0.42 0.49-0.6 1.18-0.89 1.78q0.2 0.13 0.4 0.26c1.24-1.34 2.56-2.61 3.7-4.04 1.04-1.3 2.33-2.12 3.81-2.82 2.16-1.03 4.23-2.27 6.31-3.47 0.4-0.22 0.66-0.68 1.17-1.23-1.5-0.26-2.25 0.53-3.11 1.05-0.37 0.23-0.84 0.3-1.27 0.45 0.03-0.44-0.02-0.91 0.12-1.31 0.86-2.46 1.59-4.93 1.71-7.85-2.38 2.06-4.88 3.59-6.51 6.13-0.89 1.37-2.01 2.58-3.08 3.83-0.91 1.07-1.87 2.09-2.83 3.12-0.63 0.67-1.02 1.72-2.29 1.38-0.13-0.04-0.37 0.26-0.53 0.44-2.5 2.71-5.01 5.42-7.48 8.16-0.88 0.98-1.64 2.05-2.46 3.08zm-2.38 1.65c0.29-0.25 0.74-0.51 1.03-0.89q1.3-1.74 2.48-3.56c0.2-0.32 0.19-0.77 0.28-1.17q0.38-1.68 0.77-3.36 0.23 0.05 0.47 0.1-0.27 1.44-0.55 2.88c0.87-0.69 1.63-1.21 1.84-2.52 0.23-1.47 1.27-2.82 2-4.21 0.35-0.66 0.8-1.27 1.21-1.9q0.13 0.08 0.26 0.16-1.25 2.72-2.5 5.44c1.13-0.88 1.94-2 2.99-2.84 2.64-2.11 3.59-5.05 4.28-8.13 0.39-1.76 0.75-3.54 0.91-5.34 0.15-1.79 0.03-3.6 0.03-5.4q-0.24-0.04-0.48-0.07c-0.21 0.37-0.5 0.71-0.62 1.1-0.43 1.34-0.87 2.67-1.19 4.04-0.98 4.22-2.64 8.08-5.79 11.19-0.35 0.35-0.64 0.84-0.77 1.32-0.33 1.23-1.14 1.97-2.17 2.61-1.46 0.91-3.02 1.22-4.71 1.14-1.25-0.05-1.39 0.2-1.16 1.44 0.46 2.59 0.9 5.19 1.39 7.97zm-34.05-148.94q-0.06 0.26-0.11 0.52 4.3 3.93 8.59 7.86-0.04 0.06-0.09 0.11c-1.64-1.35-3.27-2.7-5.16-4.26 0.69 2.36 2.15 4 4.68 5.38 2.04 1.11 4.12 2.15 6.18 3.24 0.5 0.27 0.97 0.59 1.55 0.95-0.66-3.8-0.93-4.19-3.75-5.71-0.64-0.34-1.3-0.64-1.93-0.99-1.93-1.06-3.1-2.58-3.09-4.91 0-1.58-0.17-3.17-0.29-5.07-2.28 1.01-4.43 1.94-6.58 2.88zm41.48 21.81c-0.5 0.3-0.91 0.54-1.32 0.78-1.63 0.97-2.22 0.62-2.43-1.23-0.05-0.52-0.64-1.43-0.91-1.4-1.64 0.15-2.86-0.65-4.07-1.52-0.58-0.42-1.05-0.44-1.62 0.02-1.65 1.36-1.71 1.37-3.55 0.23-0.59-0.37-1.17-0.51-1.58 0.06-0.74 1.03-1.37 2.15-2.04 3.23q0.2 0.17 0.39 0.33 1.43-1.37 2.85-2.73 0.12 0.08 0.23 0.17-0.43 1.61-0.87 3.23 0.19 0.13 0.37 0.26c1.32-1.22 2.63-2.43 4.15-3.84 0.13 0.81 0.21 1.33 0.29 1.86 2.04-0.72 2.04-0.72 2.38-0.15q-0.75 0.29-1.51 0.61-0.69 0.29-1.39 0.61c-0.18-0.43-0.36-0.86-0.59-1.42q-1.21 1.34-2.31 2.56c-0.02-0.01 0.06 0.04 0.13 0.03q0.23-0.05 0.46-0.13c2.18-0.81 4.35-0.97 6.57-0.07 0.69 0.27 1.5 0.45 2.24 0.41 2.43-0.13 4.87-0.24 7.27-0.62 1.63-0.25 3.75-2.95 2.59-5.26-0.93 1.74-1.55 3.66-3.12 4.91q-0.19-0.07-0.38-0.14 0.3-1.53 0.6-3.06c-0.8 1.18-0.8 2.84-2.46 3.57-0.14-0.48-0.23-0.81-0.37-1.3zm-35.14 47.62q2.13 4.89 4.65 10.69c0-3.46 0.05-6.59-0.04-9.71-0.02-0.98-0.34-1.99-0.7-2.91-0.44-1.1-1.01-2.18-2.3-2.79-0.52 1.52-1.01 2.95-1.61 4.72zm14.45 19.28q0.23 0 0.46 0c0-5.49 0.27-11-0.07-16.47q-0.82-13.12-0.31-26.24c0.08-2.15 0.01-4.31 0.01-6.46l-0.32-0.02c-0.26 3.31-0.78 6.63-0.72 9.94 0.22 13.08 0.62 26.17 0.95 39.25zm31.24-72.11c-0.29-0.4-0.62-0.95-1.05-1.4-0.49-0.5-0.99-0.5-1.55 0.06-1.27 1.29-2.76 2-4.64 1.49-0.26-0.07-0.7-0.03-0.85 0.14-0.63 0.68-1.17 1.45-1.76 2.16-1.01 1.22-2.04 2.42-3.85 2.34q-0.1 1.54 1.14 0.96c0.47-0.21 0.88-0.58 1.36-0.76 0.51-0.18 1.08-0.22 1.95-0.38 0.42-0.74 1.05-1.86 1.68-2.97q0.17 0.07 0.34 0.14v2.21q0.11 0.04 0.22 0.08 1.18-1.91 2.37-3.82 0.27 0.06 0.53 0.13c0.07 1.05 0.12 2.1 0.22 3.15 0.03 0.28 0.18 0.75 0.34 0.78 0.29 0.06 0.7-0.06 0.94-0.26 0.34-0.27 0.58-0.66 0.82-1.04 0.56-0.91 1.1-1.84 1.79-3.01zm-27.62-0.79c0.71-1.6 1.43-3.18 2.1-4.78 0.19-0.47 0.41-1.04 0.31-1.49-0.22-1.01 0.21-1.75 0.57-2.61q1.03-2.43 1.68-4.97c0.1-0.37-0.45-1.14-0.89-1.35-0.45-0.21-1.23-0.13-1.65 0.15-0.23 0.15-0.13 1.04 0.06 1.5 0.7 1.8 0.53 3.37-0.88 4.76-0.25 0.25-0.46 0.55-0.67 0.84-1.95 2.63-2.16 5.78-0.63 7.95zm30.9-4.41q0.02-0.01 0.04-0.02 0 0.02 0 0.05-0.02-0.02-0.04-0.03zm-43.69 70.12q1.22 6.11 2.45 12.22c0.6-1.91 1.09-3.76 1.47-5.63 0.37-1.88 0.62-3.77 0.92-5.66q-0.18-0.03-0.36-0.07c-0.27 0.39-0.5 0.84-0.84 1.16-0.29 0.27-0.72 0.39-1.08 0.57-0.18-0.37-0.45-0.72-0.5-1.11-0.08-0.65-0.02-1.31-0.02-2.03-0.9 0.24-1.54 0.42-2.04 0.55zm21.8-78.37c0.71-0.65 1.34-1.21 1.99-1.79-0.3-0.36-0.7-0.82-1.13-1.32 0.73-0.44 1.31-0.79 1.98-1.2-1.03-0.97-1.68-0.11-2.41 0.11-0.35 0.11-0.74 0.07-1.11 0.1 0.01-0.37-0.09-0.8 0.05-1.11 0.36-0.83 0.82-1.61 1.23-2.41q-0.11-0.17-0.23-0.34c-1.44 2.69-3.48 3.56-6.31 2.06q-0.04 0.2-0.07 0.4 1.33 2.09 2.68 4.21 0.6-0.81 1.16-1.57 0.23 0.1 0.47 0.21-0.47 1.36-0.93 2.72c0.48-0.32 0.73-0.78 1.02-1.21 0.16-0.24 0.39-0.45 0.6-0.67 0.2 0.22 0.45 0.42 0.59 0.67 0.19 0.37 0.29 0.79 0.42 1.14zm10.37 13.08c0.51 0.05 0.95 0.07 1.39 0.14 1.64 0.25 3.23-0.44 3.82-2 0.75-1.97 1.92-3.3 4.03-3.71 0.03 0 0.04-0.12 0.07-0.19-1.2-1.18-2.72-1.18-3.87 0.05-0.47 0.5-0.74 1.18-1.25 1.61-0.43 0.37-1.08 0.74-1.61 0.71-2.17-0.1-3.2 1.14-2.58 3.39zm-37.88-6.92c3.66 4.94 8.62 7.81 11.64 6.8-3.4-2.95-7.53-4.55-11.64-6.8zm29.61 2.79c-0.55 1.8-1.12 3.66-1.79 5.84q2.24 0.56 4.8 1.2c0.16-0.46 0.49-0.93 0.46-1.39-0.03-0.83-0.36-1.64-0.42-2.47-0.07-1.17-0.02-2.34-0.02-3.51-0.52 1.55-0.88 3.11-1.38 4.62-0.22 0.65-0.77 1.19-1.16 1.78-0.16-0.69-0.43-1.37-0.47-2.07-0.07-1.35-0.02-2.7-0.02-4zm-14.41 85.17c-0.2 3.92-0.42 7.75-0.59 11.58-0.08 1.67-0.96 3.34-0.05 5.03 0.1 0.18-0.11 0.52-0.17 0.79-0.06 0.29-0.2 0.58-0.17 0.87 0.14 1.29 0.33 2.59 0.51 3.97 0.92-7.42 0.71-14.79 0.47-22.24zm-7.54 6.37q0.07-0.06 0.14-0.12c-1.02-2.62-2.04-5.24-3.03-7.8-0.53 0.42-1.14 0.9-1.98 1.55q2.44 3.2 4.87 6.37zm-16.35-101.43c2 1.49 3.98 2.96 6.16 4.59-0.78-2.42-2.05-4.04-4.1-5.1-0.79-0.41-1.31-0.43-2.06 0.51zm18.22-24.68c1.17-1.63 2.14-2.98 3.1-4.32-1.4-1.09-1.98-0.9-2.67 0.76-0.26 0.61-0.76 1.12-1.08 1.71-0.21 0.39-0.53 0.97-0.38 1.25 0.18 0.35 0.79 0.48 1.03 0.6zm8.01 45.71q1.74 0.5 2.83 0.81v-2.56c-0.85 0.52-1.68 1.04-2.83 1.75zm-7.28 83.91q-0.21 0.11-0.42 0.22l2.54 5.57q0.26-0.12 0.52-0.24-1.32-2.77-2.64-5.55z"/>
					<path d="m231.8 943c0.96-1.22 1.4-1.17 2.42 0.21q-0.78-0.18-1.19-0.29c-0.34 0.5-0.62 0.93-0.92 1.36q-0.73-0.71-1.5-1.47c-1.2 0.53-1.9 0.4-2.5-0.72-1.27-2.36-1.41-4.9-0.96-7.49 0.05-0.23 0.25-0.44 0.53-0.65 0.3 2.83-0.2 5.81 1.73 8.21l0.48-0.01c0.03-0.53 0.03-1.08 0.1-1.61 0.04-0.32 0.17-0.63 0.26-0.94 0.22 0.23 0.54 0.43 0.65 0.7 0.32 0.82 0.56 1.66 0.9 2.7z"/>
					<path d="m198.37 952.37q-0.41 0.29-0.82 0.57-0.15-0.07-0.3-0.14c1.59-6.14 1.41-12.68 4.43-18.48-2.21 5.82-2.13 12.08-3.35 18.09 0 0 0.04-0.04 0.04-0.04z"/>
					<path d="m242.92 940.04c-0.03-0.59-0.05-0.83-0.06-1.1 0.2 0.02 0.37-0.02 0.43 0.05q0.62 0.65 1.23 1.32c-0.55 0.11-1.14 0.39-1.65 0.29-1.32-0.24-2.65-0.57-3.91-1.04-0.49-0.18-0.81-0.83-1.35-1.44 1.95 0.7 3.56 1.29 5.31 1.92z"/>
					<path d="m210.09 780.1c3.68-5.43 5.96-11.2 7.83-17.37 0.5 1.09 0 4.07-1.1 6.88-0.83 2.12-1.8 4.18-2.82 6.55 2.81-3.41 4.45-7.38 7.83-9.99-1.71 3.86-4.53 6.99-7.05 10.71 0.62-0.36 0.95-0.56 1.29-0.76q0.08 0.1 0.15 0.21c-1.1 0.8-2.14 2.13-3.32 2.27-1.2 0.14-1.53 1.24-2.81 1.5z"/>
					<path d="m217.04 777.91c1-0.65 1.99-1.33 3.03-1.93 0.28-0.16 0.71-0.05 1.07-0.06-0.12 0.31-0.17 0.67-0.38 0.91-0.35 0.41-0.8 0.75-1.35 1.23v-1.02c-1.4 1-2.69 1.92-3.98 2.84q-0.2-0.21-0.4-0.42c1.27-2.35 3.21-4.18 4.92-6.19q0.19 0.14 0.37 0.27-1.69 2.13-3.39 4.26 0.05 0.05 0.11 0.11z"/>
					<path d="m202.06 782.81c0.2-0.12 0.39-0.25 0.72-0.46 0.34 1.33-0.13 2.27-1.06 3.12q0.19-1.35 0.38-2.69c-0.01 0-0.04 0.03-0.04 0.03z"/>
					<path d="m185.94 782.22c-1-0.05-1.2-0.81-1.03-1.57 0.27-1.19 0.09-1.87-1.23-2.2-1.01-0.25-1.15-1.11-0.66-1.79 0.66 0.43 1.29 0.88 1.95 1.26 0.89 0.51 1.15 1.24 0.99 2.23-0.1 0.63-0.02 1.29-0.02 2.07z"/>
					<path d="m223.5 911.74q3.12-3.43 6.23-6.87l0.35 0.32q-3.13 3.45-6.25 6.9-0.17-0.17-0.33-0.35z"/>
					<path d="m220.16 790.28c-0.57 0.69 0.2 2.01-1.1 2.35-0.32-0.91 0-1.64 1.1-2.35z"/>
			<path fill-rule="evenodd" d="m201.78 844.08q0.02 0.03 0.03 0.06-0.03-0.02-0.05-0.05zm2.14 0.32c0.55-0.38 0.64-1.14 0.27-2.12-0.05-0.12-0.02-0.26-0.02-0.39 0.73 0.08 0.63-0.34 0.38-0.76q-1.68-2.89-3.37-5.77c-0.7-1.18-1.38-2.36-2.18-3.73 0.39 0.12 0.52 0.16 0.7 0.21-0.1-1.13 0.01-2.23-0.9-3.1-0.18-0.16 0.02-0.8 0.14-1.18 0.08-0.24 0.34-0.44 0.55-0.61 0.32-0.27 0.66-0.66 1.03-0.7 0.23-0.02 0.51 0.51 0.82 0.84 0.41-0.09 0.94-0.18 1.44-0.35 0.77-0.25 1.12 0.13 1.32 0.78 0.12 0.4 0.17 0.82 0.32 1.21 0.36 0.95-0.29 2.16-1.29 2.2-0.55 0.03-0.66 0.27-0.75 0.69q-0.24 0.95-0.51 1.9-0.11-0.02-0.22-0.04c0.04-0.72 0.07-1.45 0.12-2.39-0.37 0.49-0.59 0.78-0.81 1.07q-0.11-0.03-0.22-0.07 0.03-0.36 0.06-0.73 0.04-0.38 0.08-0.75-0.43 0.03-0.94 0.05c0.17 0.6 0.48 1.16 0.42 1.68-0.13 1.24 0.73 1.96 1.3 2.82 0.72 1.09 1.67 2.04 2.34 3.16 1.72 2.88 3.34 5.82 5.02 8.73 0.13 0.23 0.43 0.42 0.69 0.49 0.84 0.22 1.16 0.6 0.93 1.48-0.18 0.69 0.03 1.18 0.58 1.86l0.26-1.68c0.58 0.4 0.78 1.13 0.29 1.6-0.5 0.5-0.3 0.87-0.07 1.34 1.68 3.57 2.65 7.31 2.68 11.28q-0.01 0.69-0.03 1.38 0.16 0.03 0.32 0.05 1.61-5.84 3.21-11.69-0.13-0.04-0.27-0.08c-0.82 2.23-0.9 4.74-2.68 6.79 0.2-0.61 0.34-1.07 0.5-1.51q2.43-6.45 3.48-13.24c0.65-4.3 1.17-8.62 1.83-12.92 0.14-0.95-0.18-1.23-0.94-1.68-1.35-0.8-2.52-1.87-3.77-2.83q0.12-0.15 0.24-0.31l3.29 2.46q0.08-0.08 0.17-0.16-1.22-1.51-2.43-3.01 0.05-0.05 0.11-0.1c0.22 0.13 0.44 0.26 0.77 0.45-0.12-0.38-0.2-0.62-0.28-0.87q0.07-0.03 0.14-0.07 0.86 1.35 1.72 2.69 0.09-0.04 0.17-0.09-0.33-0.82-0.67-1.64 0.1-0.04 0.2-0.07c0.58 1.15 1.44 2.18 1.35 3.69 1.23-2.42-0.21-4.48-0.5-6.66-0.72 1.34-0.95 1.43-2.32 0.81-0.67 1.03-0.7 1.04-1.81 0.61-0.15-0.06-0.36 0.04-0.53 0.01-0.34-0.08-0.77-0.1-0.98-0.32-0.78-0.8-0.4-1.72-0.18-2.63 0.05-0.22 0.01-0.66-0.1-0.7-0.23-0.09-0.61-0.09-0.81 0.05-0.53 0.34-1.07 0.46-1.43-0.05-0.26-0.37-0.23-0.93-0.33-1.42q-0.88-0.65-1.83-1.35c0.09 1.5 0.09 1.5-0.95 1.8 0.63 0.94 1.43 1.59 2.54 1.86-1.02 0.22-1.82 0.27-2.56-0.79-0.78-1.14-0.9-1.27 0.05-1.7 0.27-0.63 0.33-1.19 0.64-1.44 0.66-0.55 1.61-0.81 2.15-1.44 0.66-0.77 1.12-0.35 1.67-0.06 0.26 0.13 0.47 0.34 0.71 0.52-0.23-1.08 0.85-0.42 1.13-0.82-1.03-1.61-0.99-1.72 0.7-1.92 0.01-1.48 0.14-1.56 1.71-1.05 1.17-1.09 2.68-0.82 3.19 0.61 0.11 0.31 0.06 0.82-0.14 1.07-0.19 0.24-0.66 0.26-0.92 0.34 0.26-0.47 0.71-0.92 0.65-1.27-0.11-0.66-0.65-1.14-1.4-1.11-1.1 0.03-0.88 0.9-0.84 1.78-0.54-0.55-0.94-0.94-1.34-1.34-0.21 0.62-0.04 1.28-0.28 1.48-0.27 0.24-0.88 0.07-1.52 0.09 0.44 0.49 0.79 0.85 1.09 1.25 0.11 0.14 0.18 0.4 0.12 0.53-0.06 0.11-0.33 0.15-0.51 0.16-0.3 0.01-0.6-0.03-0.9-0.04q-0.02 0.12-0.05 0.25c0.77 0.36 1.53 0.72 2.38 1.12q-0.29 0.17-0.56 0.19 0.21 0.62 0.43 1.25 0.23-0.07 0.45-0.14c0.14-0.68 0.28-1.36 0.47-2.25 0.26 0.44 0.45 0.74 0.72 1.2 0.2-0.34 0.42-0.62 0.56-0.94 0.25-0.56 0.63-0.64 1.05-0.27-0.58 0.62-1.16 1.25-1.8 1.93 0.27 0.11 0.45 0.18 0.63 0.25-0.32 0.07-0.79 0.04-0.94 0.24-0.63 0.85-1.21 0.63-1.78 0.04-0.12 0.05-0.2 0.06-0.22 0.09-0.57 1.15-1.2 2.27-1.69 3.45-0.23 0.53 0.32 0.96 0.92 0.85 0.16-0.03 0.34-0.05 0.49 0 1.16 0.37 1.2 0.35 1.41-0.83 0.02-0.15 0.13-0.28 0.24-0.52 0.22 0.27 0.36 0.46 0.53 0.64 0.63 0.67 0.97 0.57 1.29-0.28 0.11-0.31 0.45-0.54 0.76-0.88-0.26-0.23-0.79-0.49-0.94-0.89-0.16-0.42 0.04-0.98 0.09-1.48q0.12 0.02 0.24 0.03 0.08 0.59 0.16 1.25 0.46-0.28 0.67-0.41c0.29 0.35 0.62 0.88 0.72 0.84 0.85-0.33-0.19-0.82 0.05-1.24q0.08 0.07 0.16 0.14c0.33-0.27 0.66-0.55 1.18-0.98-0.08 0.53-0.06 0.88-0.19 1.15-0.36 0.78 0.1 1.03 0.86 1.38-0.13-1.4-0.29-2.65-0.34-3.89-0.03-0.49 0.01-1.15 0.3-1.44 0.46-0.45 1.14-0.75 1.78-0.91 0.65-0.16 1.22 0.22 1.5 0.84 0.21 0.46 0.46 0.98-0.1 1.43-0.25-0.54-0.35-1.25-0.73-1.47-0.38-0.22-1.08-0.04-1.57 0.13-0.74 0.25-0.92 0.77-0.25 1.42-0.75 0.51-0.31 0.97 0.02 1.38 0.66 0.82 0.87-0.31 1.32-0.35q0.6 0.5 1.19 1.01c0.23-0.35 0.38-0.57 0.64-0.95 0.49 1.52 1.46 0.73 2.28 0.65 0.22-0.03 0.42-0.13 0.63-0.2 0.18-0.25 0.4-0.49 0.54-0.76 0.22-0.42 0.49-0.86 0.53-1.3 0.03-0.32-0.29-0.66-0.45-0.99-0.27 0.19-0.64 0.33-0.79 0.59-0.28 0.5-0.53 0.78-1.12 0.23l-0.25 1.63c-0.51-0.64-0.62-1.3-0.38-1.9 0.2-0.53 0.57-0.51 1.03-0.38 0.1 0.02 0.25-0.24 0.39-0.27 0.47-0.11 1.06-0.39 1.38-0.21 0.38 0.21 0.58 0.82 0.75 1.29 0.09 0.28-0.05 0.63-0.1 1.17 0.52-0.39 0.86-0.71 1.26-0.92 0.37-0.2 0.85-0.48 1.21-0.41 0.99 0.2 0.98 1.62 2.07 1.84 0.15 0.03 0.22 0.48 0.32 0.74 0.01 0.04-0.02 0.12 0 0.16 0.11 0.2 0.19 0.45 0.35 0.58 0.96 0.73 1 1.37 0.09 2.16 0.71 1.14 0.66 1.49-0.14 2.55-0.16 0.22-0.17 0.68-0.06 0.95 0.29 0.71 0.2 1.28-0.41 1.72-0.34 0.24-0.73 0.4-1.13 0.62 0.3 0.57 0.73 1.22-0.04 1.68-0.42 0.25-0.99 0.26-1.5 0.31-0.09 0.01-0.21-0.33-0.39-0.64-0.22 0.29-0.58 0.64-0.53 0.71 0.23 0.31 0.53 0.59 0.86 0.81 0.43 0.28 0.91 0.47 1.35 0.73 0.18 0.1 0.34 0.25 0.54 0.41 0.11-0.34 0.19-0.59 0.3-0.92 0.28 0.12 0.5 0.24 0.74 0.31 0.23 0.07 0.47 0.08 0.71 0.12 0.04-0.26 0.15-0.54 0.1-0.78-0.31-1.39-0.32-1.39 0.99-1.94 0.04-0.02 0.06-0.09 0.11-0.18q-0.26-0.27-0.56-0.59 0.36-0.48 0.67-0.91l-0.12-0.18q-0.76 0.16-1.51 0.32-0.04-0.12-0.07-0.25c0.4-0.15 0.79-0.35 1.21-0.43 0.8-0.16 1.05 0.17 0.79 0.94-0.08 0.22-0.12 0.54-0.02 0.73 0.3 0.57 0.05 0.86-0.43 1.05-0.28 0.12-0.59 0.17-0.87 0.25 0.37 2.58 0.3 2.71-1.29 2.32-0.48 0.85-0.72 0.87-1.45 0.17-0.22-0.2-0.5-0.53-0.73-0.51-1.13 0.12-1.71-0.49-2.02-1.33-1.42 0.23-2.75 0.54-4.09 0.6-0.59 0.03-0.84 0.17-1.07 0.63-1.01 1.99-2.11 3.93-3.03 5.96-1.18 2.65-2.37 5.31-3.28 8.06-0.95 2.86-1.5 5.85-2.33 8.75-1.45 5.05-3.02 10.05-4.46 15.1-0.99 3.46-1.86 6.97-2.78 10.45 1.87-3.05 3.62-6.17 5.36-9.3 0.95-1.72 1.78-3.51 2.81-5.17 2.24-3.59 4.93-6.91 6.36-10.97 0.3-0.85 0.13-1.25-0.76-1.49-0.67-0.19-1.38-0.41-1.93-0.81-0.32-0.23-0.56-0.89-0.47-1.27 0.12-0.49 0.08-0.82-0.16-1.25-0.48-0.84-0.24-1.54 0.53-2.12 0.8-0.6 1.58-0.85 2.41-0.22 1.27-1.16 2.68-1.21 4.08-0.21 0.09 0.06 0.19 0.16 0.29 0.15 1.12-0.01 1.76 0.61 2.16 1.58 0.03 0.07 0.15 0.1 0.3 0.2-0.24-1.23 0.63-1.31 1.36-1.5 1.34-0.36 2.1 0.38 1.74 1.74-0.23 0.89-0.4 1.86-1.37 2.07 0.4 0.49 0.77 0.95 1.2 1.49 0.58-0.04 1.33-0.02 1.37 0.91 0.03 0.48-0.18 0.99-0.38 1.44-0.04 0.07-0.57-0.08-0.87-0.12l-0.04-0.26c0.74-0.05 1.01-0.42 0.81-1.05-0.22-0.69-0.69-0.38-1.1-0.23-0.47 0.17-0.64-0.1-0.65-0.49-0.02-0.73-0.34-1.05-1.08-0.89-0.12 0.03-0.33 0.02-0.4-0.06-0.54-0.63-0.95-0.24-1.41 0.11-0.13 0.1-0.35 0.07-0.52 0.1-0.01-0.18-0.05-0.36-0.02-0.54 0.02-0.12 0.13-0.22 0.32-0.53-0.62-0.06-1.11-0.15-1.58-0.14-0.61 0.03-0.88-0.04-0.73-0.79 0.08-0.4-0.23-0.95-0.53-1.3-0.11-0.13-0.67 0.12-1.02 0.21-0.13 0.03-0.25 0.19-0.37 0.19-0.73-0.01-0.84 0.51-0.83 1.02 0.02 0.46 0.19 0.92 0.29 1.32-0.36-0.08-0.84-0.17-1.3-0.33-0.46-0.14-1.38-2.04-1.18-2.48 0.08-0.18 0.42-0.24 0.64-0.35 0.12 0.23 0.39 0.51 0.34 0.7-0.15 0.64-0.19 1.16 0.51 1.52 0.29-1.42 1.23-2.36 2.32-2.4 0.79-0.03 1.36 0.67 1.69 2q1.14 0.39 2.22 0.76c0.23-0.07 0.53-0.21 0.84-0.25 1.73-0.18 2.01-0.37 2.25-1.8 0.06-0.32-0.08-0.96-0.2-0.98-0.45-0.06-0.93 0.02-1.37 0.16-0.16 0.06-0.29 0.42-0.3 0.64-0.04 0.72-0.6 1.67-0.9 1.73-0.32-0.77-0.54-1.54-0.93-2.2-0.2-0.32-0.72-0.44-1.1-0.65q-0.09 0.44-0.18 0.87c-0.81-0.31-1.57-0.61-2.42-0.94 0.32-0.07 0.57-0.17 0.83-0.18 0.26-0.01 0.53 0.07 0.79 0.11l0.09-0.3c-0.43-0.14-0.86-0.39-1.29-0.4-0.49-0.01-1.1 0.06-1.43 0.36-0.32 0.29-0.35 0.9-0.53 1.44-0.14-0.13-0.28-0.21-0.37-0.34-0.84-1.15-0.84-1.15-2.04-0.63-0.72 0.31-0.87 0.78-0.48 1.49 0.14 0.28 0.47 0.66 0.39 0.81-0.59 1.06-0.27 1.59 0.85 1.84 0.35 0.08 0.71 0.26 0.97 0.5 0.86 0.79 1.68 0.63 2.51-0.03 0.06-0.04 0.15-0.05 0.23-0.07-0.18-0.21-0.29-0.33-0.45-0.52 0.54 0.01 1.09-0.02 0.91 0.63-0.15 0.51 0.12 0.65 0.42 0.86 1.05 0.7 1.85 0.67 2.91-0.1 1.06-0.77 2.41-0.35 2.69 0.91 0.22 0.98 0.68 1.64 1.69 1.87 0.14 0.03 0.35 0.2 0.35 0.31 0.08 1.34 0.18 2.67 0.14 4-0.01 0.32-0.54 0.59-0.75 0.94-0.5 0.83-0.77 0.9-1.62 0.38-0.21-0.13-0.61-0.23-0.77-0.12-0.65 0.44-1.09 0.29-1.49-0.32-0.22-0.33-0.54-0.59-0.75-0.92-0.46-0.71-1.09-0.87-1.88-0.75-1.23 0.17-2.47 0.3-3.71 0.45q-0.01-0.15-0.03-0.3c1.37-0.2 2.75-0.4 4.2-0.61-0.26-0.86 1.05-1.75-0.21-2.54q-2.23 1.55-4.48 3.13c0.37-1.73 2.1-4.04 3.18-4.59q-1.01 1.47-1.99 2.92c1.09-0.5 2.07-1.07 3.01-1.68 0.16-0.11 0.23-0.42 0.29-0.65 0.08-0.38 0.12-0.77 0.18-1.14q-1.05-0.57-2.23-1.22-2.02 3.74-4.04 7.47 0.4-0.28 0.85-0.59c-0.62 1.03-1.32 1.95-1.98 2.89-4.76 6.84-8.49 14.24-11.77 21.87-2.08 4.85-3.76 9.86-6.27 14.53-2.25 4.17-4.21 8.49-6.41 12.69-0.99 1.89-2.24 3.66-3.4 5.45-0.34 0.52-0.79 0.96-1.19 1.44 6.4-10.4 11.47-21.42 16.23-32.66-0.24 0.01-0.35 0.02-0.57 0.03 1.19-2.26 2.33-4.43 3.47-6.59l-0.2-0.12q-0.85 1.29-1.71 2.59-0.13-0.06-0.25-0.11c0.05-0.32 0.07-0.65 0.15-0.96 0.48-1.91 1.02-3.81 1.48-5.74 0.89-3.79 2.28-7.45 2.37-11.44 0.1-4.14-0.57-8.09-2.16-11.89-0.1-0.25-0.24-0.49-0.3-0.62q-0.82 0.73-1.6 1.42-0.11-0.09-0.21-0.18c0.24-0.32 0.6-0.61 0.71-0.97 0.18-0.63 0.35-1.32 0.27-1.96-0.08-0.63-0.48-1.21-1.02-1.05-0.6 0.69-0.93 1.33-1.46 1.61-0.47 0.24-0.72 0.41-0.64 0.97q0.31-0.07 0.6-0.14c-0.23 0.46-0.53 0.78-0.85 1.09-0.41 0.4-0.75 0.91-0.41 1.42 0.55 0.81 0.19 1.24-0.42 1.75-0.55 0.46-1.08 0.95-0.5 1.85 0.44 0.69-0.26 1.65-1.07 1.56-0.29-0.04-0.56-0.35-0.83-0.54 0.2-0.23 0.4-0.48 0.63-0.68 0.11-0.1 0.29-0.12 0.51-0.2-0.26-0.32-0.47-0.59-0.68-0.85 0.93-0.79 0.98-1.79 0.21-2.58-0.28 0.23-0.62 0.4-0.79 0.68-0.19 0.3-0.41 0.84-0.28 1.01 0.56 0.73 0.35 1.22-0.21 1.8-0.44 0.46-0.2 1.54 0.26 1.49 1.36-0.13 0.48 0.52 0.35 0.95 1.12 1.13 1.19-0.41 1.85-0.78q0.18 0.43 0.34 0.81l0.02-0.02c-0.15 0.09-0.35 0.14-0.44 0.26-0.74 0.98-1.54 0.93-2.15-0.13q-0.14-0.26-0.33-0.47c-0.87-0.87-0.95-1.56-0.21-2.52 0.25-0.33 0.32-0.56 0.11-0.96-0.39-0.7-0.23-1.32 0.37-1.89 0.44-0.43 1.02-0.85 0.87-1.65-0.03-0.21 0.14-0.47 0.22-0.71 0.35-1.02 0.47-2.07 1.43-2.91 0.56-0.5 0.95-1.14 1.75-1.2 0.56-0.05 1.14 0.05 1.81 0.09q-2.13-3.5-4.23-6.93-0.13 0.04-0.26 0.07c-0.03 0.27-0.08 0.54-0.08 0.82 0.01 1.17-0.97 2.29-2.07 2.33-0.18 0.01-0.42-0.09-0.52-0.23-0.23-0.33-0.41-0.71-0.6-1.07 0.62 0.46 1.62 0.59 2.11 0.25zm0.25-2.51q-0.02 0-0.03 0l0.03-0.02q0 0.01 0 0.02zm-1.25-13.02c0.01-0.47 0.08-0.94 0.14-1.59-0.45 0.06-0.82 0.07-1.17 0.16-1.11 0.3-1.1 0.31-1.37-1.04-0.54 0.69-0.98 1.25-1.56 1.99q0.58 0.21 1.1 0.38-0.17 0.52-0.33 1.04c0.31 0.09 0.62 0.19 1.07 0.32 0.01 0.06 0.06 0.25 0.1 0.45 0.93 0.07 2.01-0.85 2.02-1.71zm10.94-10.58c-0.52-0.65-1.14-0.72-1.8-0.3q-0.52 0.35-1.03 0.72c0.35 0.35 0.67 0.74 1.06 1.02 0.22 0.15 0.58 0.11 1.01 0.18-0.24 0.38-0.42 0.62-0.54 0.89-0.05 0.13-0.03 0.35 0.05 0.45 0.08 0.09 0.29 0.09 0.44 0.08q0.76-0.05 1.51-0.16c0.24-0.04 0.48-0.14 0.79-0.25-0.42-0.61-0.8-1.09-1.09-1.61-0.12-0.23-0.09-0.56-0.09-0.85-0.01-0.21 0.04-0.42 0.07-0.64-0.11 0.14-0.23 0.28-0.38 0.47zm0.67 0.2c0.39 0.55 0.7 1.01 1.01 1.47 0.33-0.25 0.67-0.49 1.2-0.88-0.76 0.07-1.38-0.63-2.21-0.59zm16.97 4.85c0 0.88-0.18 1.01-1.23 0.83 0.13 0.31 0.16 0.63 0.32 0.7 0.23 0.12 0.69 0.19 0.82 0.06 0.51-0.57 0.89-0.33 1.45-0.04 0.46 0.23 1.1 0.09 1.8 0.11-0.04 0.51-0.27 1.46 0.72 1.43 0.41-0.42 0.66-0.72 0.96-0.95 0.48-0.4 0.32-1.21-0.31-1.53-0.19-0.09-0.44-0.19-0.5-0.35-0.34-0.8-0.57-0.89-1.33-0.47-0.19 0.11-0.43 0.15-0.88 0.3 1.12-1.38 1.62-1.45 2.76-0.66 0.13 0.09 0.37 0.11 0.5 0.05 0.09-0.05 0.18-0.34 0.12-0.42-0.14-0.22-0.39-0.58-0.55-0.55-1.16 0.2-0.97-0.19-0.47-0.88 0.11-0.15 0.02-0.57-0.12-0.76-0.1-0.14-0.49-0.21-0.66-0.13-0.79 0.37-0.81 0.04-0.69-0.62 0.05-0.24-0.19-0.53-0.3-0.8-0.24 0.14-0.52 0.25-0.73 0.43-0.32 0.26-0.6 0.57-1.01 0.8-0.16 1.03 0.37 1.81 1.31 2.37-1.02 0.62-1.9-0.31-2.19-2.2q-0.66 0.15-1.34 0.3c1.1 0.69 1.54 1.74 1.55 2.98zm-2.15 26.61q0.01 0.01 0.01 0.01-0.01 0.02-0.02 0.03 0 0 0-0.01 0-0.01 0.01-0.03zm-22.53 1.42q0.01 0 0.02 0 0-0.01 0-0.03-0.01 0-0.02 0 0 0.02 0 0.03zm1.63-0.8c0.08-0.3-0.06-0.93-0.16-0.94-0.4-0.06-0.89-0.02-1.23 0.17-0.21 0.12-0.26 0.58-0.31 0.91-0.04 0.2 0.05 0.42 0.09 0.63 0.68 0.03 1.39 0.07 1.61-0.77zm-2.88 1.71c1.1 0.3 1.26 0.19 1.25-0.91-1.14-0.19-1.24-0.12-1.25 0.91zm22.22-25.14c-0.74 0.89-1.4 1.93-2.76 1.9q0.26-0.35 0.55-0.72c-0.63-0.57-1.75-0.44-2.29 0.06-0.63 0.58-0.66 1.27-0.78 2.02q-1.07 6.9-2.19 13.79c-0.06 0.36-0.11 0.72-0.19 1.22 0.13-0.26 0.22-0.4 0.28-0.56 1.93-5.1 4.61-9.84 7.06-14.7 0.43-0.84 0.45-1.88 0.66-2.83q-0.17-0.09-0.34-0.18zm-8.6 19.46c2.13-7.56 2.6-15.39 3.93-23.15-0.28-0.24-0.65-0.56-1.03-0.89-1.01 0.58-1.28 1.18-0.96 2.31 0.48 1.67 0.68 3.27 0.37 5.08-0.91 5.29-1.54 10.62-2.27 15.94q-0.03 0.35-0.04 0.71zm11.18 9.73c-0.84 0.22-0.84 0.7-0.38 1.35 0.18-0.09 0.34-0.18 0.35-0.19 0.43 0.18 0.75 0.33 1.08 0.45 0.6 0.21 1.24 0.34 1.82 0.61 0.26 0.13 0.57 0.48 0.59 0.75q0.11 1.11-0.05 2.21c-0.03 0.22-0.48 0.37-0.73 0.55 0.19 0.09 0.48 0.27 0.8 0.39 0.25 0.08 0.52 0.08 0.78 0.12q0.04-0.38 0.08-0.77c0.01-0.08 0.02-0.16 0.04-0.3 0.62 0.12 1.09 0.04 0.95-0.62-0.42-0.18-0.77-0.33-1.28-0.55 1.16-0.56 1.46-1.26 1.2-2.28-0.01-0.06 0-0.13-0.03-0.17-0.32-0.5-1.21 0.05-1.44-0.97-0.14-0.61-1.05-0.12-1.61 0.31-0.25-0.98 0.46-1.03 1.01-1.18-0.01-0.64-0.96-1.84-1.43-1.69-0.68 0.21-1.31 0.64-1.9 1.06-0.1 0.07 0.08 0.54 0.15 0.92zm-4.92-35.44c-0.58 0.17-1.04 0.3-1.54 0.44 0.01 0.38 0.03 0.82 0.04 1.22q1.03-0.46 2.06-0.9c0.44-0.19 0.54-0.1 0.8 0.73-1.26-0.05-2.59 0.09-2.86 1.51-0.16 0.81 0.34 1.73 0.58 2.78 0.38-0.31 0.55-0.46 0.98-0.8 0.07 0.25 0.09 0.51 0.22 0.67 0.14 0.18 0.41 0.38 0.6 0.36 0.14-0.02 0.31-0.34 0.37-0.56 0.13-0.39 0.08-0.85 0.67-0.94 0.1-0.02 0.21-0.43 0.21-0.66q-0.01-1.47-0.12-2.93c-0.01-0.18-0.4-0.49-0.46-0.46-0.73 0.41-1.16-0.09-1.55-0.46zm8.81 5.29q-0.43-0.26-0.87-0.5-0.53-0.25-1.09-0.48c-1.33 0.92-2.26 0.62-3.51-1.21q-0.32 0.15-0.61 0.3c0.11 0.38 0.25 0.72 0.28 1.06 0.03 0.44 0.19 0.68 0.54 1.01 0.55 0.52 0.87 1.29 1.36 2.09 0.61-0.16 1.54 0.62 2.33-0.25 0.13-0.13 0.36-0.27 0.35-0.41-0.03-0.78 0.5-1.08 1.13-1.31zm-6.14 4.6q1.48-0.75 2.96-1.5-0.03-0.11-0.07-0.22-0.64 0.2-1.28 0.36c-0.24 0.05-0.49 0.05-0.74 0.07 0.03-0.23 0.02-0.46 0.08-0.67 0.08-0.29 0.21-0.57 0.34-0.92l-1.01-0.15c0.12 1.46 0 2.87-1.1 4.01l0.13 0.2c1.46-0.31 2.92-0.58 4.35-0.97 0.22-0.06 0.46-0.69 0.4-1-0.12-0.6-0.59-0.33-0.94-0.16-0.66 0.31-1.3 0.66-1.98 0.95-0.32 0.14-0.69 0.19-1.04 0.28q-0.05-0.14-0.1-0.28zm4.74 30.22c0.08 0.06 0.26 0.17 0.43 0.29 0.04-0.04 0.12-0.07 0.12-0.1-0.04-0.56-0.03-1.13-0.16-1.67-0.07-0.27-0.38-0.56-0.65-0.68q-0.85-0.35-1.77-0.52c-0.17-0.03-0.51 0.18-0.56 0.35-0.05 0.17 0.1 0.49 0.26 0.61 0.28 0.22 0.64 0.32 0.95 0.49 0.15 0.09 0.37 0.21 0.38 0.34 0.02 0.15-0.12 0.42-0.25 0.46-0.16 0.05-0.42-0.03-0.56-0.14-0.37-0.28-0.69-0.61-1.03-0.92q-0.11 0.06-0.22 0.12c0.03 0.19 0 0.42 0.1 0.56 0.31 0.4 0.63 0.81 1.01 1.15 0.32 0.28 0.75 0.66 1.1 0.63 0.29-0.02 0.54-0.58 0.85-0.97zm-3.12-36.86c0.32-0.25 0.21-1.35 1.11-0.58 0.36-1.07-0.4-1.68-0.86-2.43-0.59 0.22-1.18 0.43-1.89 0.69 0 0.46 0 1.01 0 1.29 0.66 0.42 1.15 0.72 1.64 1.03zm5.07 6.48c-0.17-0.6-0.5-1.12-0.36-1.44 0.13-0.3 0.81-0.32 1.14-0.59 0.26-0.22 0.42-0.61 0.52-0.96 0.03-0.09-0.36-0.46-0.47-0.43-0.33 0.1-0.63 0.32-0.91 0.54q-0.66 0.49-1.26 1.05c-0.26 0.24-0.64 0.55-0.63 0.84 0 0.38 0.28 0.73 0.85 0.67 0.32-0.04 0.66 0.18 1.12 0.32zm-11.74-3.29c1-0.69 1.03-0.83 0.29-1.9zm-17.47 29.69c0.32-0.43 0.57-0.67 0.71-0.96 0.08-0.16 0.03-0.42-0.06-0.59-0.04-0.09-0.33-0.17-0.41-0.11-0.14 0.11-0.29 0.31-0.31 0.48-0.03 0.32 0.03 0.65 0.07 1.18zm20.64-29.53q-1.03-0.21-2.07-0.43-0.04 0.12-0.08 0.25 0.33 0.09 0.66 0.19c0.28 0.1 0.56 0.23 0.84 0.31 0.19 0.06 0.39 0.07 0.59 0.1q0.03-0.21 0.06-0.42zm-19.58 25.58q-0.32-0.02-0.68-0.04-0.2 0.98-0.38 1.87 0.09 0.04 0.18 0.08 0.42-0.92 0.88-1.91z"/>
  </g>
</svg>
